<?xml version="1.0" encoding="UTF-8"?>
<svg id="Layer_1" xmlns="http://www.w3.org/2000/svg" version="1.1" viewBox="0 0 512 512">
  <!-- Generator: Adobe Illustrator 29.4.0, SVG Export Plug-In . SVG Version: 2.1.0 Build 152)  -->
  <defs>
    <style>
      .st0 {
        fill: #fbde79;
      }
    </style>
  </defs>
  <g id="OUTLINE">
    <path class="st0" d="M200,297.82c14.51-7.5,20.2-25.34,12.7-39.85-3.54-6.85-9.61-12.05-16.93-14.48l-27.77-9.26v-6.46c.05-15.17-8.52-29.04-22.11-35.78-11.27-5.6-24.51-5.6-35.78,0-13.59,6.74-22.16,20.61-22.11,35.78v6.46l-27.77,9.26c-15.49,5.14-23.89,21.87-18.75,37.36,2.43,7.34,7.65,13.43,14.52,16.97v86.18H16v16h40v15.6l-7.96,79.6,15.92,1.59,5.12-51.23c5.32,4.86,11.86,8.19,18.92,9.63v24.81h16v-24h48v24h16v-24.81c7.06-1.44,13.6-4.77,18.92-9.63l5.12,51.23,15.92-1.59-7.96-79.6v-15.6h32v-16h-32v-86.18ZM60.59,281.74c-2.94-2.56-4.62-6.28-4.59-10.18,0-5.85,3.74-11.04,9.29-12.88l25.75-8.58c2.02,4.84,4.96,9.24,8.68,12.94l4.28,4.28v6.56c0,4.03-3.01,7.43-7.01,7.94l-25.73,3.22c-3.87.51-7.76-.7-10.67-3.29ZM184,416c-.02,13.25-10.75,23.98-24,24h-64c-13.25-.02-23.98-10.75-24-24v-88h112v88ZM184,312h-112v-10.97c.42-.03.83-.07,1.25-.12l25.73-3.22c12-1.52,21.01-11.72,21.02-23.82v-13.19l-8.97-8.97c-1.95-1.95-3.56-4.22-4.74-6.71l16.24-5.41-5.06-15.18-13.47,4.49v-1.12c-.03-9.1,5.11-17.42,13.27-21.47,6.76-3.36,14.71-3.36,21.47,0,8.15,4.04,13.3,12.37,13.27,21.47v1.12l-13.47-4.49-5.06,15.18,16.24,5.41c-1.18,2.49-2.79,4.76-4.74,6.71l-8.97,8.97v13.19c.02,12.1,9.02,22.3,21.02,23.82l25.73,3.22c.42.05.83.08,1.25.12v10.98ZM195.41,281.74c-2.91,2.6-6.8,3.8-10.67,3.29l-25.73-3.22c-4-.51-7-3.91-7.01-7.94v-6.56l4.28-4.28c3.71-3.7,6.66-8.1,8.68-12.94l25.75,8.58c5.55,1.84,9.29,7.04,9.29,12.88.02,3.9-1.65,7.62-4.59,10.18Z"/>
    <path class="st0" d="M456,296.24c15.46-9.11,20.61-29.03,11.5-44.49-2.18-3.7-5.07-6.93-8.5-9.5l-19.15-14.36c.09-1.29.15-2.58.15-3.89,0-30.93-25.07-56-56-56s-56,25.07-56,56h0c0,1.31.06,2.6.15,3.89l-19.15,14.36c-14.36,10.75-17.28,31.1-6.53,45.46,2.58,3.45,5.82,6.35,9.53,8.53v87.76h-24v16h24v15.6l-7.96,79.6,15.92,1.59,5.12-51.23c5.32,4.86,11.86,8.19,18.92,9.63v24.81h16v-24h48v24h16v-24.81c7.06-1.44,13.6-4.77,18.92-9.63l5.12,51.23,15.92-1.59-7.96-79.6v-15.6h40v-16h-40v-87.76ZM384,184c22.09,0,40,17.91,40,40s-17.91,40-40,40-40-17.91-40-40c.03-22.08,17.92-39.97,40-40ZM317.58,280.62c-3.57-3.11-5.61-7.63-5.58-12.37.01-5.19,2.45-10.07,6.6-13.2l13.48-10.11c5.28,13.01,15.23,23.57,27.89,29.63-.33,3.75-3.24,6.77-6.98,7.24l-22.45,2.81c-4.7.61-9.43-.85-12.96-4ZM440,416c-.02,13.25-10.75,23.98-24,24h-64c-13.25-.02-23.98-10.75-24-24v-88h112v88ZM440,312h-112v-11.26c.17,0,.33.01.5.01,1.35,0,2.69-.08,4.03-.25l22.45-2.81c9.96-1.27,18.08-8.59,20.37-18.36,5.73.89,11.57.89,17.31,0,2.29,9.77,10.41,17.1,20.37,18.36l22.45,2.81c1.34.17,2.68.25,4.03.25.17,0,.33,0,.5-.01v11.26ZM450.42,280.62c-3.53,3.16-8.27,4.62-12.96,4l-22.45-2.81c-3.74-.47-6.64-3.49-6.98-7.24,12.66-6.06,22.61-16.62,27.89-29.63l13.48,10.11c4.14,3.12,6.59,8.01,6.6,13.2.03,4.74-2.01,9.25-5.58,12.37Z"/>
    <path class="st0" d="M384,248c13.25,0,24-10.75,24-24s-10.75-24-24-24-24,10.75-24,24c.01,13.25,10.75,23.99,24,24ZM384,216c4.42,0,8,3.58,8,8s-3.58,8-8,8-8-3.58-8-8c0-4.42,3.58-7.99,8-8Z"/>
    <path class="st0" d="M243.99,148.88c1.62.35,3.27.53,4.92.53.95,0,1.89-.06,2.83-.17l55.61-6.56c5.87-.68,11.28-3.51,15.18-7.96,4.82,3.4,10.74,4.9,16.6,4.21l47.67-5.63c13.16-1.57,22.56-13.49,21.02-26.65l-1.57-13.31c-2.8-23.95-20.64-43.4-44.25-48.27l-134.31-27.82c-5.09-1.04-10.37-.42-15.07,1.78l-124.14,58.33c-21.83,10.23-34.65,33.31-31.8,57.25l1.57,13.31c1.43,12.06,11.64,21.16,23.79,21.19.96,0,1.91-.06,2.86-.17l47.67-5.63c5.88-.68,11.29-3.52,15.19-7.97,4.02,2.84,8.83,4.38,13.76,4.38.95,0,1.89-.06,2.83-.17l55.61-6.56c2.83-.33,5.58-1.16,8.11-2.46l34.32,329.46h-14.4v16h40v-16h-9.51l-34.49-331.12ZM217.83,42.68l5.35,53.54-60.52,7.14,55.17-60.69ZM136.04,144.43c-1.31,1.67-3.23,2.75-5.34,2.99l-47.67,5.63c-4.39.52-8.36-2.62-8.88-7.01l-1.57-13.31c-.1-.87-.17-1.73-.21-2.59l63.47-7.49,1.88,15.89c.25,2.11-.34,4.23-1.66,5.89ZM138.44,106.23l-63.49,7.49c3.69-9.65,10.99-17.5,20.35-21.89l98.15-46.12-55.01,60.51ZM223.44,134.11c-1.31,1.67-3.23,2.75-5.34,2.99l-55.61,6.56c-4.39.51-8.36-2.62-8.88-7.01l-1.88-15.89,71.5-8.44,1.88,15.89c.25,2.11-.34,4.23-1.66,5.89h0ZM390.37,95.22l1.57,13.31c.51,4.39-2.62,8.36-7.01,8.88l-47.67,5.63c-4.39.52-8.36-2.61-8.88-7,0,0,0,0,0,0l-1.88-15.89,63.47-7.49c.16.85.29,1.7.39,2.57ZM358.76,60.74c10.12,2.09,19.04,8.02,24.88,16.55l-65.03,7.67-59.94-44.96,100.09,20.73ZM233.77,41.33l61.8,46.35-56.5,6.67-5.3-53.02ZM241.96,129.32l-1.98-18.96,70.64-8.34,1.88,15.89c.52,4.39-2.62,8.36-7.01,8.88,0,0,0,0,0,0l-55.61,6.56c-3.21.38-6.34-1.21-7.92-4.04h0Z"/>
    <path class="st0" d="M496,40c-.01-13.25-10.75-23.99-24-24h-16v16h16c4.42,0,8,3.58,8,8s-3.58,8-8,8h-64v16h64c13.25-.01,23.99-10.75,24-24Z"/>
    <rect class="st0" x="480" y="80" width="16" height="16"/>
    <rect class="st0" x="424" y="80" width="40" height="16"/>
  </g>
</svg>